<?xml version="1.0" encoding="utf-8"?>
<!-- Generator: Adobe Illustrator 21.0.0, SVG Export Plug-In . SVG Version: 6.00 Build 0)  -->
<svg version="1.1" id="Layer_1" xmlns="http://www.w3.org/2000/svg" xmlns:xlink="http://www.w3.org/1999/xlink" x="0px" y="0px"
	 viewBox="0 0 30 30" style="enable-background:new 0 0 30 30;" xml:space="preserve">
<path d="M15,29.9C6.8,29.9,0.1,23.2,0.1,15S6.8,0.1,15,0.1S29.9,6.8,29.9,15S23.2,29.9,15,29.9z M15,1.1C7.3,1.1,1.1,7.3,1.1,15
	S7.3,28.9,15,28.9S28.9,22.7,28.9,15S22.7,1.1,15,1.1z M24.7,26l-0.6,0.3v-0.5c0-0.7-1.4-1.3-2.7-1.9c-2-0.8-4.5-1.8-4.5-4.1
	c0-1.7,0.5-2.5,1.1-3.3c0.6-0.9,1.3-1.9,1.3-5.1c0-0.9-0.2-3.6-1.1-4.4c-0.9-0.7-2-1-3.3-1.1c-1.3,0-2.3,0.3-3.3,1.1
	c-0.8,0.8-1,3.5-1,4.4c0,3.2,0.7,4.2,1.3,5.1c0.5,0.8,1.1,1.5,1.1,3.3c0,2.3-2.5,3.3-4.5,4.1c-1.3,0.6-2.7,1.1-2.7,1.9v0.5L5,26.1
	l-0.2-0.3c0-1.4,1.6-2.1,3.4-2.8c1.9-0.8,3.8-1.6,3.8-3.2c0-1.4-0.4-2-0.9-2.7c-0.7-1-1.5-2.2-1.5-5.7c0-0.4,0-3.8,1.3-5.2
	c1.3-0.9,2.5-1.3,4-1.3s2.7,0.4,3.9,1.3c1.4,1.4,1.4,4.8,1.4,5.2c0,3.5-0.8,4.7-1.5,5.7c-0.5,0.7-0.9,1.3-0.9,2.7
	c0,1.6,1.9,2.4,3.8,3.2c1.7,0.7,3.4,1.4,3.4,2.8L24.7,26z"/>
</svg>
