<?xml version="1.0" encoding="utf-8"?>
<!-- Generator: Adobe Illustrator 21.0.0, SVG Export Plug-In . SVG Version: 6.00 Build 0)  -->
<svg version="1.1" id="Layer_1" xmlns="http://www.w3.org/2000/svg" xmlns:xlink="http://www.w3.org/1999/xlink" x="0px" y="0px"
	 viewBox="0 0 24 23" style="enable-background:new 0 0 24 23;" xml:space="preserve">
<path id="Shape" d="M22.5,18L19,14.5c-0.4-0.3-0.8-0.5-1.3-0.5c-0.5,0-1,0.2-1.4,0.6l-1.7,1.7l-0.3-0.1c-1.5-0.8-3-1.8-4.2-3.1
	c-1.2-1.3-2.3-2.7-3.1-4.3L6.8,8.5l1.7-1.7c0.8-0.8,0.8-2,0-2.8L5,0.5C4.6,0.2,4.2,0,3.7,0c-0.5,0-1,0.2-1.4,0.6L1.4,1.5
	c0,0,0,0,0,0.1L1.3,1.6C0.9,2.1,0.6,2.6,0.4,3.1c-0.2,0.5-0.3,1-0.4,1.5C-0.4,8.5,1.4,12,6.2,16.9C11.9,22.5,16.7,23,18,23
	c0.1,0,0.3,0,0.4,0c0.5-0.1,1-0.2,1.5-0.4c0.5-0.2,1-0.5,1.5-0.8l0.2-0.1l0,0l0.8-0.8C23.2,20,23.2,18.8,22.5,18z M21.9,20.3
	L21.1,21l-0.2,0.1c-0.4,0.3-0.8,0.6-1.3,0.7c-0.4,0.2-0.9,0.3-1.3,0.3c0,0-0.1,0-0.4,0c-1.3,0-5.8-0.4-11.3-5.9
	c-4.6-4.6-6.3-8-5.9-11.7c0-0.4,0.2-0.9,0.3-1.3c0.2-0.5,0.4-0.9,0.7-1.3l0,0l0.1-0.1l0.8-0.8C3,0.8,3.3,0.7,3.7,0.7
	C4,0.7,4.3,0.8,4.5,1L8,4.6C8.5,5,8.4,5.8,8,6.3L6.1,8.2C5.9,8.3,5.9,8.5,6,8.6l0.3,0.5c0.8,1.6,1.9,3.1,3.2,4.4
	c1.3,1.3,2.8,2.3,4.4,3.2l0.5,0.3c0.1,0.1,0.3,0,0.4-0.1l1.9-1.9c0.2-0.2,0.6-0.4,0.9-0.4c0.3,0,0.6,0.1,0.8,0.3l3.5,3.5l0,0
	c0.2,0.2,0.3,0.5,0.3,0.8C22.3,19.7,22.2,20,21.9,20.3L21.9,20.3z"/>
</svg>
