<?xml version="1.0" encoding="utf-8"?>
<!-- Generator: Adobe Illustrator 21.0.0, SVG Export Plug-In . SVG Version: 6.00 Build 0)  -->
<svg version="1.1" id="Layer_2" xmlns="http://www.w3.org/2000/svg" xmlns:xlink="http://www.w3.org/1999/xlink" x="0px" y="0px"
	 viewBox="0 0 23.1 29.8" style="enable-background:new 0 0 23.1 29.8;" xml:space="preserve">
<style type="text/css">
	.st0{fill:#666666;}
</style>
<path class="st0" d="M20,10.4c-0.2-0.2-0.4-0.4-0.7-0.7v-2c0-4.3-3.5-7.8-7.8-7.8C7.2,0,3.7,3.5,3.7,7.8v2C-1,14.1-1.3,21.4,3,26.1
	s11.6,5,16.3,0.7S24.3,15.1,20,10.4z M5,7.8c0.3-3.6,3.4-6.3,7-6c3.2,0.3,5.7,2.8,6,6v0.9C14.1,6,8.9,6,5,8.7V7.8z M11.5,28.5
	c-5.7,0-10.2-4.6-10.3-10.2C1.3,12.6,5.9,8,11.5,8c5.7,0,10.2,4.6,10.3,10.2C21.8,23.9,17.2,28.5,11.5,28.5z M12.4,17.8
	c0.9-0.5,1.3-1.6,0.9-2.6c-0.5-0.9-1.6-1.3-2.6-0.9c-0.9,0.5-1.3,1.6-0.9,2.6c0.2,0.4,0.5,0.7,0.9,0.9l-1.8,4.4
	c-0.1,0.1,0,0.3,0.1,0.3h0.1H14c0.1,0,0.3-0.1,0.3-0.3v-0.1L12.4,17.8z"/>
</svg>
