<?xml version="1.0" encoding="utf-8"?>
<!-- Generator: Adobe Illustrator 21.0.0, SVG Export Plug-In . SVG Version: 6.00 Build 0)  -->
<svg version="1.1" id="Layer_1" xmlns="http://www.w3.org/2000/svg" xmlns:xlink="http://www.w3.org/1999/xlink" x="0px" y="0px"
	 viewBox="0 0 24 24" style="enable-background:new 0 0 24 24;" xml:space="preserve">
<style type="text/css">
	.st0{fill:#333333;}
</style>
<path class="st0" d="M12,23.5C5.7,23.5,0.5,18.3,0.5,12S5.7,0.5,12,0.5S23.5,5.7,23.5,12S18.3,23.5,12,23.5z M12,1.5
	C6.2,1.5,1.5,6.2,1.5,12S6.2,22.5,12,22.5S22.5,17.8,22.5,12S17.8,1.5,12,1.5z M14.8,12c-0.8,0-1.4-0.6-1.4-1.4V7.9h2.8v2.8
	C16.1,11.4,15.5,12,14.8,12z M9.3,12c-0.8,0-1.4-0.6-1.4-1.4V7.9h2.8v2.8C10.6,11.4,10,12,9.3,12z M16.1,14.8
	c-1,1.5-2.2,1.4-4.1,1.4s-3.1,0.1-4.1-1.4H6.5c1.1,2.2,2.8,2.8,5.5,2.8s4.4-0.5,5.5-2.8H16.1z"/>
</svg>
