<?xml version="1.0" encoding="utf-8"?>
<!-- Generator: Adobe Illustrator 21.0.0, SVG Export Plug-In . SVG Version: 6.00 Build 0)  -->
<svg version="1.1" id="Layer_2" xmlns="http://www.w3.org/2000/svg" xmlns:xlink="http://www.w3.org/1999/xlink" x="0px" y="0px"
	 viewBox="0 0 25 26" style="enable-background:new 0 0 25 26;" xml:space="preserve">
<style type="text/css">
	.st0{fill:#999999;}
</style>
<path class="st0" d="M15.6,6l-4.2,4.3l-2-1.9c-0.2-0.2-0.5-0.2-0.7,0s-0.2,0.5,0,0.7l2.4,2.2c0.1,0.1,0.2,0.1,0.3,0.1s0.2,0,0.3-0.2
	l4.6-4.5c0.2-0.2,0.2-0.5,0-0.7S15.8,5.8,15.6,6z M24.9,13.5L24.9,13.5c0-0.1,0-0.1,0-0.2l-3.1-3.4c-0.1-0.1-0.3-0.2-0.4-0.2h-1.2V1
	c0-0.6-0.5-1-1-1H5.8c-0.6,0-1,0.5-1,1v8.7H3.6c-0.2,0-0.3,0.1-0.4,0.2l-3.1,3.4c0,0,0,0,0,0.1c0,0,0,0,0,0.1v0.1c0,0,0,0,0,0.1
	v10.6c0,0.8,0.7,1.5,1.5,1.5h21.9c0.8,0,1.5-0.7,1.5-1.5V13.7C25,13.6,25,13.5,24.9,13.5z M21.1,10.8l2.1,2.3h-3v-2.3H21.1z M5.8,1
	h13.3v12H5.8V1z M4,10.8h0.8v2.3H1.9L4,10.8z M23.9,24.3c0,0.2-0.2,0.4-0.4,0.4h-22c-0.2,0-0.4-0.2-0.4-0.4V14.2h22.7L23.9,24.3
	L23.9,24.3z"/>
</svg>
