<?xml version="1.0" encoding="utf-8"?>
<!-- Generator: Adobe Illustrator 21.0.0, SVG Export Plug-In . SVG Version: 6.00 Build 0)  -->
<svg version="1.1" id="Layer_1" xmlns="http://www.w3.org/2000/svg" xmlns:xlink="http://www.w3.org/1999/xlink" x="0px" y="0px"
	 viewBox="0 0 27 27" style="enable-background:new 0 0 27 27;" xml:space="preserve">
<style type="text/css">
	.st0{fill:#00A0DC;}
</style>
<path class="st0" d="M13.5,26.5c-7.2,0-13-5.8-13-13s5.8-13,13-13s13,5.8,13,13S20.7,26.5,13.5,26.5z M13.5,1.5c-6.6,0-12,5.4-12,12
	s5.4,12,12,12s12-5.4,12-12S20.1,1.5,13.5,1.5z M7.7,13.9L8,13.6l0,0l0.1-0.1c0,0,1-1,1.5-1.5l2.4,2.4l5.6-5.6l1.9,1.9L12,18.2
	L7.7,13.9C7.7,13.9,7.6,13.8,7.7,13.9l-0.1-0.1L7.7,13.9z"/>
</svg>
