<?xml version="1.0" encoding="utf-8"?>
<!-- Generator: Adobe Illustrator 21.0.0, SVG Export Plug-In . SVG Version: 6.00 Build 0)  -->
<svg version="1.1" id="Layer_1" xmlns="http://www.w3.org/2000/svg" xmlns:xlink="http://www.w3.org/1999/xlink" x="0px" y="0px"
	 viewBox="0 0 32 30" style="enable-background:new 0 0 32 30;" xml:space="preserve">
<style type="text/css">
	.st0{fill:#666666;}
</style>
<path class="st0" d="M6.7,29.6c-0.3,0-0.5-0.1-0.6-0.3C6,29.3,5.9,29,5.9,28.5l1-7.6C7,20,6.6,18.8,6,18.2l-5.3-5.6
	c-0.4-0.4-0.4-0.8-0.3-1c0.1-0.2,0.3-0.5,0.8-0.6l7.6-1.4c0.8-0.2,1.9-0.9,2.3-1.7l4-7.2c0.1-0.2,0.3-0.3,0.6-0.3c0,0,0,0,0,0
	c0.2,0,0.5,0.1,0.6,0.3l4,7.2c0.4,0.8,1.5,1.5,2.3,1.7l7.6,1.5c0.5,0.1,0.8,0.3,0.9,0.6c0.1,0.2,0,0.6-0.3,0.9l-5.3,5.6
	c-0.6,0.6-1,1.9-0.9,2.7c0,0,0,0,0,0l1,7.6c0.1,0.5-0.1,0.7-0.2,0.9c-0.2,0.2-0.5,0.4-1.2,0.1l-7-3.3c-0.8-0.4-2.1-0.4-2.9,0l-7,3.3
	C7,29.6,6.8,29.6,6.7,29.6z M2.1,12.2l4.8,5.1c0.8,0.9,1.4,2.5,1.2,3.8l-0.9,7l6.4-3c1.1-0.5,2.9-0.5,4,0l6.4,3l-0.9-7
	c-0.2-1.2,0.4-2.9,1.2-3.8l4.8-5.1l-7-1.3c-1.2-0.2-2.6-1.2-3.2-2.3l-3.4-6.2l-3.4,6.2c-0.6,1.1-2,2.1-3.2,2.3L2.1,12.2z"/>
</svg>
