<?xml version="1.0" encoding="utf-8"?>
<!-- Generator: Adobe Illustrator 21.0.0, SVG Export Plug-In . SVG Version: 6.00 Build 0)  -->
<svg version="1.1" id="Layer_1" xmlns="http://www.w3.org/2000/svg" xmlns:xlink="http://www.w3.org/1999/xlink" x="0px" y="0px"
	 viewBox="0 0 19 22.7" style="enable-background:new 0 0 19 22.7;" xml:space="preserve">
<style type="text/css">
	.st0{fill:#999999;}
</style>
<path class="st0" d="M16.2,2.8c-3.7-3.7-9.7-3.7-13.4,0s-3.7,9.7,0,13.4l6.4,6.3c0.1,0.1,0.2,0.1,0.3,0.2c0.1,0,0.3,0,0.3-0.1
	l6.4-6.4C19.9,12.5,19.9,6.5,16.2,2.8z M15.5,15.5l-6,6l-6-6C1.9,13.9,1,11.7,1,9.5C1,4.8,4.8,1,9.5,1c2.3,0,4.4,0.9,6,2.5
	C18.8,6.8,18.8,12.2,15.5,15.5z M6.8,6.9c-0.7,0.7-1,1.7-1,2.7c0,2.1,1.7,3.8,3.7,3.8c1,0,1.9-0.4,2.6-1.1c1.5-1.5,1.5-3.8,0-5.3
	C10.7,5.5,8.3,5.5,6.8,6.9z M11.5,11.5c-1.1,1-2.8,1-3.9,0C7,11,6.8,10.3,6.8,9.6c0-1.5,1.2-2.8,2.7-2.8c0.7,0,1.4,0.3,2,0.8l0,0
	C12.5,8.7,12.5,10.4,11.5,11.5z"/>
</svg>
