<?xml version="1.0" encoding="utf-8"?>
<!-- Generator: Adobe Illustrator 21.0.0, SVG Export Plug-In . SVG Version: 6.00 Build 0)  -->
<svg version="1.1" id="Layer_1" xmlns="http://www.w3.org/2000/svg" xmlns:xlink="http://www.w3.org/1999/xlink" x="0px" y="0px"
	 viewBox="0 0 20 28" style="enable-background:new 0 0 20 28;" xml:space="preserve">
<style type="text/css">
	.st0{fill:#666666;}
</style>
<path id="Shape" class="st0" d="M10.7,25.2V28H9.3v-2.8C4.1,24.8,0,20.6,0,15.4h1.4c0,4.6,3.8,8.4,8.6,8.4s8.6-3.8,8.6-8.4H20
	C20,20.6,15.9,24.8,10.7,25.2z M10,22.4c-3.9,0-7.1-3.1-7.1-7V7c0-3.9,3.2-7,7.1-7c3.9,0,7.1,3.1,7.1,7v8.4
	C17.1,19.3,13.9,22.4,10,22.4z M15.7,7c0-3.1-2.6-5.6-5.7-5.6S4.3,3.9,4.3,7v8.4c0,3.1,2.6,5.6,5.7,5.6s5.7-2.5,5.7-5.6V7z"/>
</svg>
