<?xml version="1.0" encoding="utf-8"?>
<!-- Generator: Adobe Illustrator 21.0.0, SVG Export Plug-In . SVG Version: 6.00 Build 0)  -->
<svg version="1.1" id="Layer_1" xmlns="http://www.w3.org/2000/svg" xmlns:xlink="http://www.w3.org/1999/xlink" x="0px" y="0px"
	 viewBox="0 0 22 20" style="enable-background:new 0 0 22 20;" xml:space="preserve">
<style type="text/css">
	.st0{fill:#333333;}
</style>
<path class="st0" d="M11.4,20.4l-2.8-4.1h-6c-0.9,0-1.7-0.7-1.7-1.6V1.6C1,0.7,1.7,0,2.6,0h17.6c0.9,0,1.7,0.7,1.7,1.6v13.1
	c0,0.9-0.7,1.6-1.7,1.6h-6.2L11.4,20.4z M2.6,0.8c-0.5,0-0.9,0.4-0.9,0.8v13.1c0,0.5,0.4,0.8,0.9,0.8h6.5l2.3,3.4l2.2-3.4h6.6
	c0.5,0,0.9-0.4,0.9-0.8V1.6c0-0.5-0.4-0.8-0.9-0.8H2.6z"/>
</svg>
