<?xml version="1.0" encoding="utf-8"?>
<!-- Generator: Adobe Illustrator 21.0.0, SVG Export Plug-In . SVG Version: 6.00 Build 0)  -->
<svg version="1.1" id="Layer_1" xmlns="http://www.w3.org/2000/svg" xmlns:xlink="http://www.w3.org/1999/xlink" x="0px" y="0px"
	 viewBox="0 0 24 22" style="enable-background:new 0 0 24 22;" xml:space="preserve">
<style type="text/css">
	.st0{fill:#333333;}
</style>
<path class="st0" d="M20,21.1H3.9c-2.8,0-3.6-0.3-3.6-1.4c0-0.1,0-0.2,0-0.3c-0.1-0.5-0.2-1.3,0.9-2.1C3,16,4.8,14.9,6.6,13.8
	c0.6-0.4,1.2-0.7,1.8-1.1C6.2,10.8,6.1,8.9,6.1,5c0-3.5,3.4-4.4,5.2-4.4H12c1.8,0,5.3,0.9,5.3,4.4c0,3.9,0,5.8-2.2,7.7
	c0.7,0.4,1.3,0.8,2,1.2c1.8,1.1,3.6,2.2,5.3,3.5l0,0c0.8,0.7,0.9,1.3,1,1.8c0,0.1,0,0.3,0.1,0.4l0,0.1C23.5,20.8,22.7,21.1,20,21.1z
	 M11.3,1.4c-0.2,0-4.4,0-4.4,3.6c0,4.1,0.1,5.6,2.4,7.4l0.5,0.3L9.3,13c-0.8,0.5-1.5,1-2.3,1.4c-1.8,1.1-3.6,2.2-5.4,3.6
	c-0.7,0.5-0.6,0.9-0.6,1.3c0,0.1,0,0.3,0,0.4c0,0.3,0,0.6,2.8,0.6H20c2.5,0,2.7-0.3,2.7-0.5c-0.1-0.2-0.1-0.3-0.1-0.5
	c0-0.4-0.1-0.8-0.7-1.2c-1.7-1.3-3.5-2.4-5.3-3.4c-0.8-0.5-1.7-1-2.5-1.5l-0.5-0.3l0.5-0.3c2.3-1.8,2.3-3.3,2.3-7.4
	c0-3.6-4.3-3.6-4.5-3.6H11.3z"/>
</svg>
