<?xml version="1.0" encoding="utf-8"?>
<!-- Generator: Adobe Illustrator 21.0.0, SVG Export Plug-In . SVG Version: 6.00 Build 0)  -->
<svg version="1.1" id="Layer_1" xmlns="http://www.w3.org/2000/svg" xmlns:xlink="http://www.w3.org/1999/xlink" x="0px" y="0px"
	 viewBox="0 0 26.6 29.8" style="enable-background:new 0 0 26.6 29.8;" xml:space="preserve">
<style type="text/css">
	.st0{fill:#666666;}
</style>
<path class="st0" d="M26.5,25.1L26.5,25.1l-2-5.4v-8.5C24.6,5,19.5,0,13.3,0C7.2,0,2.1,5,2.1,11.2v8.5L0,25.1
	c-0.2,0.3,0,0.7,0.3,0.9C0.4,26,0.5,26,0.7,26h7.9c0.6,2.6,3.2,4.2,5.8,3.6c1.8-0.4,3.2-1.8,3.6-3.6h7.9c0.4,0,0.7-0.3,0.7-0.6
	C26.6,25.3,26.5,25.2,26.5,25.1z M3.4,11.2c0-5.5,4.4-9.9,9.9-9.9c5.5,0,9.9,4.4,9.9,9.9v8H3.4V11.2z M13.3,28.5L13.3,28.5
	c-1.6,0-2.9-1.1-3.4-2.5h6.8C16.3,27.5,14.9,28.5,13.3,28.5z M1.6,24.6l1.6-4.2h20.2l1.6,4.2H1.6z"/>
</svg>
