<?xml version="1.0" encoding="utf-8"?>
<!-- Generator: Adobe Illustrator 21.0.0, SVG Export Plug-In . SVG Version: 6.00 Build 0)  -->
<svg version="1.1" id="Layer_1" xmlns="http://www.w3.org/2000/svg" xmlns:xlink="http://www.w3.org/1999/xlink" x="0px" y="0px"
	 viewBox="0 0 20 19.5" style="enable-background:new 0 0 20 19.5;" xml:space="preserve">
<path d="M19.2,12.7c-0.5-0.4-0.8-0.8-1.1-1.4c0,0-0.5-3.1-0.6-4.8C17.3,2.9,14,0,10,0S2.7,2.9,2.5,6.5c-0.1,1.7-0.6,4.7-0.6,4.7
	c-0.2,0.6-0.6,1.1-1.1,1.5C0.3,13.1,0,13.7,0,14.3c0.1,1.2,1.1,2.2,2.4,2.1h3.7c0.4,1.8,2,3.1,3.9,3.1c1.9,0.1,3.5-1.2,3.9-3.1h3.7
	c1.3,0.1,2.3-0.9,2.4-2.2C20,13.6,19.7,13.1,19.2,12.7z M10,18.5c-1.3,0.1-2.5-0.8-2.9-2.1h5.8C12.6,17.7,11.4,18.5,10,18.5z
	 M17.6,15.4h-4.2l-11.1,0C1.7,15.5,1.1,15,1,14.3c0-0.3,0.1-0.5,0.5-0.8c0.6-0.5,1.1-1.2,1.4-2c0.3-1.6,0.5-3.3,0.6-4.9
	C3.7,3.5,6.5,1,10,1s6.3,2.4,6.5,5.6c0.1,1.7,0.4,3.3,0.7,5c0.3,0.7,0.7,1.4,1.4,1.9c0.4,0.3,0.5,0.5,0.5,0.7
	C18.9,14.9,18.3,15.4,17.6,15.4z"/>
</svg>
