<?xml version="1.0" encoding="utf-8"?>
<!-- Generator: Adobe Illustrator 21.0.0, SVG Export Plug-In . SVG Version: 6.00 Build 0)  -->
<svg version="1.1" id="Layer_1" xmlns="http://www.w3.org/2000/svg" xmlns:xlink="http://www.w3.org/1999/xlink" x="0px" y="0px"
	 viewBox="0 0 5 18" style="enable-background:new 0 0 5 18;" xml:space="preserve">
<style type="text/css">
	.st0{fill:#999999;}
</style>
<path id="Icon" class="st0" d="M0.9,2.1c0,1.1,0.9,2,2,2s2-0.9,2-2s-0.9-2-2-2S0.9,1,0.9,2.1z M0.9,9c0,1.1,0.9,2,2,2s2-0.9,2-2
	c0-1.1-0.9-2-2-2S0.9,7.9,0.9,9z M0.9,15.9c0,1.1,0.9,2,2,2s2-0.9,2-2c0-1.1-0.9-2-2-2S0.9,14.8,0.9,15.9z"/>
</svg>
