<?xml version="1.0" encoding="utf-8"?>
<!-- Generator: Adobe Illustrator 21.0.0, SVG Export Plug-In . SVG Version: 6.00 Build 0)  -->
<svg version="1.1" id="Layer_1" xmlns="http://www.w3.org/2000/svg" xmlns:xlink="http://www.w3.org/1999/xlink" x="0px" y="0px"
	 viewBox="0 0 38 26" style="enable-background:new 0 0 38 26;" xml:space="preserve">
<style type="text/css">
	.st0{fill:#666666;}
</style>
<path class="st0" d="M34.9,11.1h-32V8.8h32V11.1z M36.4,22.1c0,1.4-1.1,2.5-2.5,2.5H3.8c-1.4,0-2.5-1.1-2.5-2.5V3.8
	c0-1.4,1.1-2.5,2.5-2.5h30.1c1.4,0,2.5,1.1,2.5,2.5V22.1z M35.4,22.1v-9.5H2.2v9.5c0,0.9,0.7,1.6,1.6,1.6h30.1
	C34.8,23.7,35.5,23,35.4,22.1z M35.5,8.2H2.3v3.5h33.2V8.2z M35.5,3.9c0-0.9-0.7-1.6-1.6-1.6H3.8C3,2.3,2.3,3,2.3,3.8v3.4h33.2V3.9z
	"/>
</svg>
