<?xml version="1.0" encoding="utf-8"?>
<!-- Generator: Adobe Illustrator 21.0.0, SVG Export Plug-In . SVG Version: 6.00 Build 0)  -->
<svg version="1.1" id="Layer_1" xmlns="http://www.w3.org/2000/svg" xmlns:xlink="http://www.w3.org/1999/xlink" x="0px" y="0px"
	 viewBox="0 0 24 17" style="enable-background:new 0 0 24 17;" xml:space="preserve">
<style type="text/css">
	.st0{fill:#999999;}
</style>
<path id="Shape" class="st0" d="M21.9,17H2.1C0.9,17,0,16,0,14.9V2.1C0,1,0.9,0,2.1,0h19.8C23.1,0,24,1,24,2.1v12.8
	C24,16,23.1,17,21.9,17z M1,6.9H23V4.8H1V6.9z M23,2.1c0-0.6-0.5-1.1-1-1.1H2.1c-0.6,0-1,0.5-1,1.1v1.6H23V2.1z M23,8H1v6.9
	c0,0.6,0.5,1.1,1,1.1h19.8c0.6,0,1-0.5,1-1.1V8z M13,11.2H11c-0.3,0-0.5-0.2-0.5-0.5c0-0.3,0.2-0.5,0.5-0.5H13
	c0.3,0,0.5,0.2,0.5,0.5C13.6,10.9,13.3,11.2,13,11.2z M8.3,11.2H3.7c-0.3,0-0.5-0.2-0.5-0.5c0-0.3,0.2-0.5,0.5-0.5h4.7
	c0.3,0,0.5,0.2,0.5,0.5C8.9,10.9,8.6,11.2,8.3,11.2z M3.7,12.8h3.1c0.3,0,0.5,0.2,0.5,0.5c0,0.3-0.2,0.5-0.5,0.5H3.7
	c-0.3,0-0.5-0.2-0.5-0.5C3.1,13,3.4,12.8,3.7,12.8z"/>
</svg>
