<?xml version="1.0" encoding="utf-8"?>
<!-- Generator: Adobe Illustrator 21.0.0, SVG Export Plug-In . SVG Version: 6.00 Build 0)  -->
<svg version="1.1" id="Layer_1" xmlns="http://www.w3.org/2000/svg" xmlns:xlink="http://www.w3.org/1999/xlink" x="0px" y="0px"
	 viewBox="0 0 22.9 26" style="enable-background:new 0 0 22.9 26;" xml:space="preserve">
<path d="M20.5,3.1L20.5,3.1l-1.1,0v-1c-0.1-1.2-1.1-2-2.3-2c-1.1,0.1-1.9,0.9-2,2v1H7.7v-1C7.7,0.9,6.8,0,5.6,0S3.5,0.9,3.5,2.1v1
	H2.4C1.1,3.1,0,4.2,0,5.5v18.2C0,24.9,1.1,26,2.4,26h18.2c1.3,0,2.4-1.1,2.4-2.4V5.5C22.9,4.2,21.8,3.1,20.5,3.1z M16.3,2.1
	c0.1-0.5,0.7-0.9,1.2-0.7c0.4,0.1,0.6,0.4,0.7,0.7v3C18.1,5.6,17.6,6,17,5.8c-0.4-0.1-0.6-0.4-0.7-0.7V2.1z M5.4,0.9
	c0.5-0.1,1.1,0.2,1.2,0.7c0,0.2,0,0.3,0,0.5v3C6.5,5.6,5.9,6,5.4,5.8C5,5.7,4.7,5.5,4.7,5.1v-3C4.5,1.6,4.8,1,5.4,0.9z M20.5,24.9
	H2.4c-0.7,0-1.2-0.6-1.2-1.2V5.5c0-0.7,0.6-1.2,1.2-1.2h1.1v0.9c0,1.2,0.9,2.1,2.1,2.1c1.2,0,2.1-0.9,2.1-2.1V4.2h7.5v0.9
	c0.1,1.2,1.1,2,2.3,2c1.1-0.1,1.9-0.9,2-2V4.2h1.1c0.7,0,1.2,0.6,1.2,1.2l0,18.2C21.8,24.3,21.2,24.9,20.5,24.9z"/>
</svg>
