<?xml version="1.0" encoding="utf-8"?>
<!-- Generator: Adobe Illustrator 21.0.0, SVG Export Plug-In . SVG Version: 6.00 Build 0)  -->
<svg version="1.1" id="Layer_1" xmlns="http://www.w3.org/2000/svg" xmlns:xlink="http://www.w3.org/1999/xlink" x="0px" y="0px"
	 viewBox="0 0 24 29" style="enable-background:new 0 0 24 29;" xml:space="preserve">
<style type="text/css">
	.st0{fill:#666666;}
</style>
<path class="st0" d="M21.8,28.6H2.9c-1.1,0-2.1-0.9-2.1-2.1V10.8c0-1.1,0.9-2.1,2.1-2.1h18.9c1.1,0,2.1,0.9,2.1,2.1v15.8
	C23.8,27.7,22.9,28.6,21.8,28.6z M2.9,9.7c-0.6,0-1.1,0.5-1.1,1.1v15.8c0,0.6,0.5,1.1,1.1,1.1h18.9c0.6,0,1.1-0.5,1.1-1.1V10.8
	c0-0.6-0.5-1.1-1.1-1.1H2.9L2.9,9.7z M19.6,9.7c-0.3,0-0.5-0.2-0.5-0.5V7.8C19.1,4,16,1,12.3,1S5.5,4.1,5.5,7.8v1.4
	c0,0.3-0.2,0.5-0.5,0.5S4.5,9.5,4.5,9.2V7.8C4.5,3.5,8,0,12.3,0s7.8,3.5,7.8,7.8v1.4C20.1,9.5,19.9,9.7,19.6,9.7z M12.3,23.8
	c-0.9,0-1.5-0.7-1.5-1.5v-2.6c-1-0.6-1.7-1.6-1.7-2.8c0-1.8,1.5-3.2,3.2-3.2c1.8,0,3.2,1.5,3.2,3.2c0,1.2-0.7,2.3-1.7,2.8v2.6
	C13.9,23.1,13.2,23.8,12.3,23.8z M12.3,14.6c-1.2,0-2.2,1-2.2,2.2c0,0.9,0.5,1.7,1.4,2.1c0.2,0.1,0.3,0.3,0.3,0.5v2.9
	c0,0.3,0.2,0.5,0.5,0.5s0.5-0.2,0.5-0.5v-2.9c0-0.2,0.1-0.4,0.3-0.5c0.8-0.3,1.4-1.2,1.4-2.1C14.6,15.6,13.6,14.6,12.3,14.6z"/>
</svg>
