<?xml version="1.0" encoding="utf-8"?>
<!-- Generator: Adobe Illustrator 21.0.0, SVG Export Plug-In . SVG Version: 6.00 Build 0)  -->
<svg version="1.1" id="Layer_1" xmlns="http://www.w3.org/2000/svg" xmlns:xlink="http://www.w3.org/1999/xlink" x="0px" y="0px"
	 viewBox="0 0 28 28" style="enable-background:new 0 0 28 28;" xml:space="preserve">
<style type="text/css">
	.st0{fill:#222222;}
</style>
<path class="st0" d="M14,0C6.3,0,0,6.3,0,14s6.3,14,14,14s14-6.3,14-14S21.7,0,14,0z M14,27C6.8,27,1,21.2,1,14S6.8,1,14,1
	s13,5.8,13,13S21.2,27,14,27z M16.4,10.7L14,5.9l-2.4,4.8l-5.3,0.8l3.8,3.7l-0.9,5.3L14,18l4.7,2.5l-0.9-5.3l3.8-3.7L16.4,10.7z
	 M17.4,18.7L14,16.9l-3.4,1.8l0.7-3.8l-2.8-2.7l3.8-0.6L14,8.2l1.7,3.4l3.8,0.6l-2.7,2.7L17.4,18.7z"/>
</svg>
