<?xml version="1.0" encoding="utf-8"?>
<!-- Generator: Adobe Illustrator 19.0.0, SVG Export Plug-In . SVG Version: 6.00 Build 0)  -->
<svg version="1.1" id="Layer_1" xmlns="http://www.w3.org/2000/svg" xmlns:xlink="http://www.w3.org/1999/xlink" x="0px" y="0px"
	 viewBox="0 0 100 100" style="enable-background:new 0 0 100 100;" xml:space="preserve">
<style type="text/css">
	.st0{fill:#231F20;}
</style>
<g>
	<path class="st0" d="M49.7,3.5c-25.8,0-46.9,21-46.9,46.9c0,25.8,21,46.9,46.9,46.9c25.8,0,46.9-21,46.9-46.9
		C96.6,24.6,75.5,3.5,49.7,3.5z M49.7,94.4c-24.2,0-43.9-19.7-43.9-43.9c0-24.2,19.7-43.9,43.9-43.9c24.2,0,43.9,19.7,43.9,43.9
		C93.6,74.6,73.9,94.4,49.7,94.4z"/>
	<polygon class="st0" points="57.6,41.8 49.7,25.7 41.8,41.8 24,44.3 36.9,56.8 33.8,74.5 49.7,66.2 65.5,74.5 62.5,56.8 75.3,44.3 
			"/>
</g>
</svg>
