<?xml version="1.0" encoding="utf-8"?>
<!-- Generator: Adobe Illustrator 21.0.0, SVG Export Plug-In . SVG Version: 6.00 Build 0)  -->
<svg version="1.1" id="Layer_1" xmlns="http://www.w3.org/2000/svg" xmlns:xlink="http://www.w3.org/1999/xlink" x="0px" y="0px"
	 viewBox="0 0 20 17" style="enable-background:new 0 0 20 17;" xml:space="preserve">
<style type="text/css">
	.st0{fill:#666666;}
</style>
<path id="Shape" class="st0" d="M0.9,16.8c-0.1-0.1-0.2-0.3-0.1-0.5l3.3-7.8L0.8,0.7c-0.1-0.2,0-0.4,0.1-0.5C1,0,1.2,0,1.4,0.1
	l17.5,8c0.2,0.1,0.3,0.2,0.3,0.4c0,0.2-0.1,0.4-0.3,0.4l-17.5,8C1.2,17,1,17,0.9,16.8C0.9,16.9,0.9,16.8,0.9,16.8z M2.1,1.4L5,8.3
	c0,0.1,0,0.2,0,0.4l-2.9,6.9l15.5-7.1L2.1,1.4z"/>
</svg>
