<?xml version="1.0" encoding="utf-8"?>
<!-- Generator: Adobe Illustrator 21.0.0, SVG Export Plug-In . SVG Version: 6.00 Build 0)  -->
<svg version="1.1" id="Layer_1" xmlns="http://www.w3.org/2000/svg" xmlns:xlink="http://www.w3.org/1999/xlink" x="0px" y="0px"
	 viewBox="0 0 28 28" style="enable-background:new 0 0 28 28;" xml:space="preserve">
<style type="text/css">
	.st0{fill:#666666;}
</style>
<path class="st0" d="M28,12.1c0-1.2-1-2.2-2.2-2.1h-1.1c-0.1-0.2-0.2-0.5-0.3-0.7l0.8-0.8c0.8-0.8,0.8-2.2,0-3.1l-2.6-2.6
	c-0.9-0.8-2.2-0.8-3.1,0l-0.8,0.8L18,3.2v-1C18,1,17,0,15.9,0l0,0h-3.7C10.9,0,10,1,10,2.2v1.1L9.3,3.5L8.5,2.8C7.6,2,6.3,2,5.4,2.8
	L2.8,5.4C2,6.2,2,7.6,2.8,8.5l0.8,0.8C3.5,9.5,3.4,9.7,3.3,10H2.2C1,10,0,10.9,0,12.1v3.7C0,17.1,1,18,2.2,18h1.1
	c0.1,0.2,0.2,0.5,0.3,0.7l-0.8,0.8c-0.8,0.8-0.8,2.2,0,3.1l2.7,2.7c0.9,0.8,2.2,0.8,3.1,0l0.8-0.8l0.7,0.3v1.1
	c0,1.2,0.9,2.2,2.1,2.2h3.7c1.2,0,2.2-1,2.2-2.2v-1.1l0.7-0.3l0.8,0.8c0.9,0.8,2.2,0.8,3.1,0l2.6-2.7c0.8-0.8,0.8-2.2,0-3.1
	l-0.8-0.8c0.1-0.2,0.2-0.5,0.3-0.7h1.1c1.2,0,2.2-1,2.2-2.2L28,12.1L28,12.1z M26.1,15.8C26.1,15.9,26.1,15.9,26.1,15.8
	c0,0.2-0.2,0.3-0.3,0.3h-1.7c-0.4,0-0.8,0.3-0.9,0.6c-0.2,0.6-0.4,1.1-0.7,1.7c-0.2,0.4-0.1,0.8,0.2,1.1l1.2,1.2l0,0
	c0.1,0.1,0.1,0.3,0,0.4l-2.6,2.7l0,0c-0.1,0.1-0.3,0.1-0.4,0l-1.2-1.2c-0.3-0.3-0.7-0.3-1.1-0.2c-0.5,0.3-1.1,0.5-1.7,0.7
	c-0.4,0.1-0.6,0.5-0.7,0.9v1.7l0,0c0,0.2-0.2,0.3-0.3,0.3h-3.7l0,0c-0.2,0-0.3-0.2-0.3-0.3V24c0-0.4-0.3-0.8-0.7-0.9
	c-0.6-0.2-1.1-0.4-1.7-0.7c-0.4-0.2-0.8-0.1-1.1,0.2l-1.2,1.2l0,0C7,24,6.8,24,6.7,23.9l-2.6-2.6l0,0C4,21.2,4,21,4.1,20.9l1.2-1.2
	c0.3-0.3,0.3-0.7,0.2-1.1C5.2,18,5,17.4,4.8,16.8c-0.1-0.4-0.5-0.6-0.9-0.7H2.2l0,0c-0.2,0-0.3-0.2-0.3-0.3v-3.7l0,0
	c0-0.2,0.2-0.3,0.3-0.3h1.7c0.4,0,0.8-0.3,0.9-0.7C5,10.6,5.2,10,5.5,9.5c0.2-0.4,0.1-0.8-0.2-1.1L4.1,7.2l0,0C4,7,4,6.8,4.1,6.7
	l2.6-2.6l0,0C6.9,4,7.1,4,7.2,4.1l1.2,1.2c0.3,0.3,0.7,0.3,1.1,0.2C10,5.2,10.6,5,11.2,4.8c0.4-0.1,0.6-0.5,0.7-0.9V2.2l0,0
	c0-0.2,0.2-0.3,0.3-0.3h3.7l0,0l0,0c0.2,0,0.3,0.2,0.3,0.3v1.7c0,0.4,0.3,0.7,0.7,0.9C17.4,5,18,5.2,18.5,5.5
	c0.4,0.2,0.8,0.1,1.1-0.2l1.2-1.2l0,0C21,4,21.2,4,21.3,4.1l2.6,2.6l0,0C24,6.8,24,7,23.9,7.1l-1.2,1.2c-0.3,0.3-0.3,0.7-0.2,1.1
	c0.3,0.5,0.5,1.1,0.7,1.7c0.1,0.4,0.5,0.6,0.9,0.7h1.7l0,0c0.2,0,0.3,0.2,0.3,0.3C26.1,12.1,26.1,15.8,26.1,15.8z M14,7.5
	c-3.6,0-6.5,2.9-6.5,6.5s2.9,6.5,6.5,6.5s6.5-2.9,6.5-6.5S17.6,7.5,14,7.5z M14,18.7c-2.6,0-4.7-2.1-4.7-4.7s2.1-4.7,4.7-4.7l0,0
	c2.6,0,4.6,2.1,4.6,4.7C18.7,16.6,16.6,18.7,14,18.7z"/>
</svg>
