<?xml version="1.0" encoding="utf-8"?>
<!-- Generator: Adobe Illustrator 21.0.0, SVG Export Plug-In . SVG Version: 6.00 Build 0)  -->
<svg version="1.1" id="Layer_1" xmlns="http://www.w3.org/2000/svg" xmlns:xlink="http://www.w3.org/1999/xlink" x="0px" y="0px"
	 viewBox="0 0 28 28" style="enable-background:new 0 0 28 28;" xml:space="preserve">
<path d="M14,0C6.3,0,0,6.3,0,14s6.3,14,14,14s14-6.3,14-14S21.7,0,14,0z M14,27C6.8,27,1,21.2,1,14S6.8,1,14,1s13,5.8,13,13
	S21.2,27,14,27z M19.1,11.1c1.4-0.9,1.9-2.8,1-4.2s-2.8-1.9-4.2-1c-1.2,0.8-1.7,2.3-1.2,3.7l-5.3,3.2C8.5,11.4,6.6,11,5.2,12
	c-1.4,0.9-1.8,2.8-0.8,4.2C5.3,17.6,7.2,18,8.6,17c0.3-0.2,0.6-0.5,0.8-0.8l5.3,3.2c-0.6,1.5,0.2,3.3,1.7,3.9s3.3-0.2,3.9-1.7
	s-0.2-3.3-1.7-3.9c-1.1-0.4-2.3-0.2-3.2,0.7c-0.2,0.2-0.3,0.3-0.4,0.5l-5.3-3.2c0.3-0.7,0.3-1.5,0-2.2l5.3-3.2
	C15.8,11.6,17.7,12,19.1,11.1z M15,8.5c0-1.3,1.1-2.4,2.5-2.4c1.3,0,2.4,1.1,2.4,2.5c0,1.3-1.1,2.4-2.5,2.4C16.1,11,15,9.9,15,8.5
	L15,8.5z M6.8,16.9c-1.3,0-2.4-1.1-2.4-2.4S5.5,12,6.8,12s2.4,1.1,2.4,2.4S8.2,16.9,6.8,16.9z M15.7,18.7c0.9-0.9,2.5-1,3.4,0
	c0.5,0.5,0.7,1.1,0.7,1.7s-0.3,1.3-0.7,1.7c-0.9,0.9-2.5,1-3.4,0C14.8,21.1,14.8,19.6,15.7,18.7z"/>
</svg>
