<?xml version="1.0" encoding="utf-8"?>
<!-- Generator: Adobe Illustrator 21.0.0, SVG Export Plug-In . SVG Version: 6.00 Build 0)  -->
<svg version="1.1" id="Layer_1" xmlns="http://www.w3.org/2000/svg" xmlns:xlink="http://www.w3.org/1999/xlink" x="0px" y="0px"
	 viewBox="0 0 24 24" style="enable-background:new 0 0 24 24;" xml:space="preserve">
<style type="text/css">
	.st0{fill:#FE5C0B;}
</style>
<path class="st0" d="M12,0C5.4,0,0,5.4,0,12s5.4,12,12,12s12-5.4,12-12S18.6,0,12,0z M8.3,12.5c0,0.4-0.1,0.7-0.2,1l4.7,2.8
	c0.1-0.2,0.3-0.4,0.4-0.5c1-1.1,2.7-1.1,3.8,0.2c0.5,0.5,0.8,1.2,0.8,1.9c0,0.7-0.3,1.4-0.8,1.9s-1.2,0.8-1.9,0.8
	c-0.7,0-1.4-0.3-1.9-0.8s-0.8-1.2-0.8-1.9c0-0.4,0.1-0.7,0.2-1l-4.7-2.8c-0.5,0.7-1.4,1.2-2.3,1.2c-1.5,0-2.7-1.2-2.7-2.7
	s1.2-2.7,2.7-2.7c1,0,1.8,0.5,2.3,1.2l4.7-2.8c-0.1-0.3-0.2-0.7-0.2-1c0-1.5,1.2-2.7,2.7-2.7s2.7,1.2,2.7,2.7S16.6,10,15.1,10
	c-1,0-1.8-0.5-2.3-1.3l-4.7,2.8C8.2,11.8,8.3,12.1,8.3,12.5z"/>
</svg>
