<?xml version="1.0" encoding="utf-8"?>
<!-- Generator: Adobe Illustrator 21.0.0, SVG Export Plug-In . SVG Version: 6.00 Build 0)  -->
<svg version="1.1" id="Layer_1" xmlns="http://www.w3.org/2000/svg" xmlns:xlink="http://www.w3.org/1999/xlink" x="0px" y="0px"
	 viewBox="0 0 22 29" style="enable-background:new 0 0 22 29;" xml:space="preserve">
<style type="text/css">
	.st0{fill:#F82F2F;}
</style>
<path class="st0" d="M8.2,27h11.5c0.6,0,1.1-0.5,1.1-1.1V2.2c0-0.6-0.5-1.1-1.1-1.1H8.2c-0.3,0-0.5-0.2-0.5-0.6C7.7,0.2,7.9,0,8.2,0
	h11.5C20.9,0,22,0.9,22,2.2v23.7c0,1.2-1,2.2-2.2,2.2H8.2c-0.3,0-0.5-0.2-0.5-0.6S7.9,27,8.2,27z M13.7,13.2H1.8l4.1-4.6
	c0.2-0.2,0.2-0.6,0-0.8s-0.6-0.2-0.8,0l-4.9,5.5l0,0l0,0l0,0c0,0,0,0,0,0.1l0,0c0,0,0,0,0,0.1c0,0,0,0,0,0.1l0,0l0,0c0,0,0,0,0,0.1
	l0,0c0,0,0,0,0,0.1c0,0,0,0.1,0.1,0.1l0,0c0,0,0,0.1,0.1,0.1l4.9,4.9c0.1,0.1,0.2,0.2,0.4,0.2c0.1,0,0.3-0.1,0.4-0.2
	c0.2-0.2,0.2-0.5,0-0.8l-4-4h11.8c0.3,0,0.5-0.2,0.5-0.6C14.3,13.4,14,13.2,13.7,13.2z"/>
</svg>
