<?xml version="1.0" encoding="utf-8"?>
<!-- Generator: Adobe Illustrator 21.0.0, SVG Export Plug-In . SVG Version: 6.00 Build 0)  -->
<svg version="1.1" id="Layer_1" xmlns="http://www.w3.org/2000/svg" xmlns:xlink="http://www.w3.org/1999/xlink" x="0px" y="0px"
	 viewBox="0 0 27.3 27.3" style="enable-background:new 0 0 27.3 27.3;" xml:space="preserve">
<style type="text/css">
	.st0{fill:#F28821;}
</style>
<path class="st0" d="M26.7,0h-26C0.3,0,0,0.3,0,0.6v26c0,0.4,0.3,0.7,0.7,0.7c0.1,0,0.2,0,0.3-0.1l11.4-7.1h14.3
	c0.4,0,0.6-0.3,0.6-0.7V0.6C27.3,0.3,27,0,26.7,0z M26,18.8H12.2c-0.1,0-0.2,0-0.3,0.1L1.3,25.5V1.3H26V18.8z M7.9,9.4
	c0.8,0,1.4,0.6,1.4,1.4s-0.6,1.4-1.4,1.4s-1.4-0.6-1.4-1.4S7.1,9.4,7.9,9.4z M13.7,9.4c0.8,0,1.4,0.6,1.4,1.4s-0.6,1.4-1.4,1.4
	s-1.4-0.6-1.4-1.4S12.9,9.4,13.7,9.4z M19.4,9.4c0.8,0,1.4,0.6,1.4,1.4s-0.6,1.4-1.4,1.4S18,11.6,18,10.8S18.6,9.4,19.4,9.4z"/>
</svg>
