<?xml version="1.0" encoding="utf-8"?>
<!-- Generator: Adobe Illustrator 21.0.0, SVG Export Plug-In . SVG Version: 6.00 Build 0)  -->
<svg version="1.1" id="Layer_1" xmlns="http://www.w3.org/2000/svg" xmlns:xlink="http://www.w3.org/1999/xlink" x="0px" y="0px"
	 viewBox="0 0 21.3 27.8" style="enable-background:new 0 0 21.3 27.8;" xml:space="preserve">
<style type="text/css">
	.st0{fill:#666666;}
</style>
<path class="st0" d="M21.2,14l-4.2-6.5l4.2-6.5c0.2-0.3,0.1-0.7-0.2-0.8C20.9,0,20.8,0,20.7,0H0.6C0.3,0,0,0.3,0,0.6v26.6
	c0,0.3,0.3,0.6,0.6,0.6c0.3,0,0.6-0.3,0.6-0.6V14.9h19.5c0.3,0,0.6-0.3,0.6-0.6C21.3,14.2,21.2,14.1,21.2,14z M1.2,13.7V1.2h18.3
	l-3.8,5.9c-0.1,0.2-0.1,0.5,0,0.7l3.8,5.9H1.2z"/>
</svg>
