<?xml version="1.0" encoding="utf-8"?>
<!-- Generator: Adobe Illustrator 21.0.0, SVG Export Plug-In . SVG Version: 6.00 Build 0)  -->
<svg version="1.1" id="Layer_1" xmlns="http://www.w3.org/2000/svg" xmlns:xlink="http://www.w3.org/1999/xlink" x="0px" y="0px"
	 viewBox="0 0 17.2 19.9" style="enable-background:new 0 0 17.2 19.9;" xml:space="preserve">
<style type="text/css">
	.st0{fill:#999999;}
</style>
<path class="st0" d="M17.1,9.4c-0.3-3.5-0.5-5.1-0.5-5.7c0-0.4-0.3-0.8-0.7-0.9L9.3,0.1C9,0,8.7,0,8.5,0.1L1.4,2.8
	C1,2.9,0.7,3.3,0.7,3.7C0.6,4.4,0.5,5.8,0.1,9.2c-0.2,2.6,0.7,5.1,2.4,7c2,2.3,4.9,3.7,6,3.7v0c1,0,3.9-1.2,6.1-3.5
	C16.4,14.5,17.3,11.9,17.1,9.4z M14,15.7c-1.4,1.6-3.3,2.8-5.5,3.3c-0.7,0-3.4-1.2-5.4-3.4c-1.6-1.7-2.4-4-2.2-6.3
	c0.4-3.3,0.5-4.8,0.6-5.5c0-0.1,0.1-0.2,0.1-0.2l7.1-2.7h0.1v0h0.1l6.7,2.7c0.1,0,0.1,0.1,0.1,0.2c0,0.6,0.2,2.2,0.5,5.7
	C16.5,11.8,15.6,14.1,14,15.7z"/>
</svg>
