<svg 
 xmlns="http://www.w3.org/2000/svg"
 xmlns:xlink="http://www.w3.org/1999/xlink"
 width="20px" height="19px">
<path fill-rule="evenodd"  fill="#ffffff"
 d="M16.000,8.000 C14.518,8.000 13.237,7.181 12.546,5.981 L7.840,7.942 C7.934,8.281 8.000,8.631 8.000,9.000 C8.000,9.465 7.905,9.905 7.758,10.320 L12.676,12.779 C13.395,11.707 14.616,11.000 16.000,11.000 C18.205,11.000 20.000,12.794 20.000,15.000 C20.000,17.206 18.205,19.000 16.000,19.000 C13.794,19.000 12.000,17.206 12.000,15.000 C12.000,14.535 12.095,14.095 12.242,13.680 L7.323,11.221 C6.605,12.292 5.384,13.000 4.000,13.000 C1.794,13.000 -0.000,11.206 -0.000,9.000 C-0.000,6.794 1.794,5.000 4.000,5.000 C5.482,5.000 6.763,5.819 7.454,7.019 L12.160,5.058 C12.066,4.719 12.000,4.369 12.000,4.000 C12.000,1.794 13.794,-0.000 16.000,-0.000 C18.205,-0.000 20.000,1.794 20.000,4.000 C20.000,6.206 18.205,8.000 16.000,8.000 ZM16.000,18.000 C17.654,18.000 19.000,16.654 19.000,15.000 C19.000,13.346 17.654,12.000 16.000,12.000 C14.346,12.000 13.000,13.346 13.000,15.000 C13.000,16.654 14.346,18.000 16.000,18.000 ZM4.000,6.000 C2.346,6.000 1.000,7.346 1.000,9.000 C1.000,10.654 2.346,12.000 4.000,12.000 C5.654,12.000 7.000,10.654 7.000,9.000 C7.000,7.346 5.654,6.000 4.000,6.000 ZM16.000,1.000 C14.346,1.000 13.000,2.346 13.000,4.000 C13.000,5.654 14.346,7.000 16.000,7.000 C17.654,7.000 19.000,5.654 19.000,4.000 C19.000,2.346 17.654,1.000 16.000,1.000 Z"/>
</svg>